<svg height="496pt" viewBox="0 0 496 496" width="496pt" xmlns="http://www.w3.org/2000/svg"><path d="m224.109375 278.628906 6.207031-14.757812 14.738282 6.203125-6.207032 14.753906zm0 0"/><path d="m236.546875 249.148438 6.203125-14.746094 14.75 6.203125-6.203125 14.746093zm0 0"/><path d="m248.96875 219.660156 6.203125-14.75 14.75 6.203125-6.203125 14.75zm0 0"/><path d="m143.359375 160.621094 19-8.003906 6.210937 14.753906-19 8zm0 0"/><path d="m127.625 375.878906.757812-15.984375c-45.070312-2.132812-80.382812-39.191406-80.382812-84.351562 0-22.550781 8.785156-43.757813 24.734375-59.71875l2.3125-2.3125c7.753906-7.757813 16.824219-13.847657 26.953125-18.113281l28.574219-12.03125-6.207031-14.75-28.574219 12.03125c-12.039063 5.070312-22.824219 12.320312-32.050781 21.542968l-2.308594 2.3125c-18.984375 19-29.433594 44.214844-29.433594 71.039063 0 53.714843 42 97.785156 95.625 100.335937zm0 0"/><path d="m328 56c0 4.417969-3.582031 8-8 8s-8-3.582031-8-8 3.582031-8 8-8 8 3.582031 8 8zm0 0"/><path d="m360 88c0 4.417969-3.582031 8-8 8s-8-3.582031-8-8 3.582031-8 8-8 8 3.582031 8 8zm0 0"/><path d="m376 376c-24.136719 0-55.328125 15.230469-76.472656 29.496094-14.792969 9.96875-67.398438 42.503906-123.527344 42.503906-59.808594 0-86.976562-24.640625-94-50.039062 15.558594 6.4375 32.585938 10.039062 50.449219 10.039062 35.382812 0 68.648437-13.785156 93.65625-38.800781l2.308593-2.3125c12.171876-12.167969 21.730469-26.382813 28.417969-42.253907l45.9375-109.113281c5.300781-12.582031 12.894531-23.871093 22.558594-33.535156l8.816406-8.816406c3.207031 5.136719 7.558594 9.535156 12.726563 12.785156 9.058594 5.664063 19.914062 7.421875 30.585937 4.957031 14.429688-3.351562 25.96875-14.8125 29.390625-29.191406 2.792969-11.734375.382813-23.878906-6.617187-33.34375-4.695313-6.351562-11.085938-11.09375-18.335938-13.757812 9.167969-19.90625 12.777344-42.023438 10.457031-63.65625l8.335938-8.335938c4.648438-4.648438 7.3125-11.082031 7.3125-17.65625 0-13.769531-11.199219-24.96875-24.96875-24.96875-6.671875 0-12.941406 2.59375-17.65625 7.3125l-8.335938 8.335938c-21.625-2.296876-43.75 1.296874-63.65625 10.457031-2.671874-7.25-7.40625-13.640625-13.757812-18.335938-9.457031-7.007812-21.59375-9.425781-33.335938-6.617187-14.386718 3.421875-25.839843 14.960937-29.183593 29.390625-2.472657 10.664062-.707031 21.519531 4.957031 30.578125 3.242188 5.167968 7.648438 9.519531 12.777344 12.734375l-8.816406 8.816406c-9.664063 9.664063-20.953126 17.25-33.542969 22.550781l-109.121094 45.945313c-15.871094 6.6875-30.085937 16.246093-42.253906 28.417969l-2.3125 2.308593c-25.015625 25.015625-38.792969 58.273438-38.792969 93.648438 0 34.386719 13.289062 65.65625 34.847656 89.226562-1.871094 7.046875-2.847656 13.398438-2.847656 19.230469 0 55.753906 44.527344 112 144 112 69.769531 0 132.726562-38.816406 150.359375-50.710938 17.785156-11.992187 41.28125-21.289062 49.640625-21.289062 72.792969 0 95.753906 49.167969 96.679688 51.222656l2.105468 4.777344h21.214844v-8c0-57.425781-48.222656-96-120-96zm7.03125-360c4.945312 0 8.96875 4.023438 8.96875 8.96875 0 2.359375-.960938 4.671875-2.625 6.34375l-5.375 5.375-12.6875-12.6875 5.375-5.375c1.695312-1.695312 3.945312-2.625 6.34375-2.625zm-332.925781 177.199219 2.308593-2.3125c10.699219-10.695313 23.203126-19.101563 37.160157-24.976563l109.105469-45.933594c14.511718-6.113281 27.511718-14.855468 38.648437-25.992187l27.425781-27.417969-14.105468-3.222656c-6.183594-1.414062-11.664063-5.320312-15.03125-10.703125-3.402344-5.433594-4.441407-11.992187-2.9375-18.488281 1.953124-8.433594 8.914062-15.441406 17.304687-17.441406 2.023437-.480469 4.039063-.710938 6.023437-.710938 5.105469 0 9.96875 1.574219 14.097657 4.632812 5.71875 4.222657 9.253906 10.734376 9.703125 17.855469l.816406 12.832031 11.152344-6.398437c19.566406-11.21875 42.359375-15.9375 64.496094-13.347656l20.152343 20.160156c2.582031 22.121094-2.121093 44.921875-13.335937 64.496094l-6.394532 11.152343 12.824219.816407c7.121094.457031 13.625 3.984375 17.847657 9.703125 4.25 5.746094 5.640624 12.890625 3.921874 20.128906-2 8.402344-9.007812 15.351562-17.441406 17.304688-6.503906 1.511718-13.0625.472656-18.480468-2.929688-5.382813-3.375-9.289063-8.847656-10.695313-15.03125l-3.222656-14.101562-27.425781 27.414062c-11.136719 11.136719-19.878907 24.136719-25.992188 38.648438l-45.933594 109.105468c-5.882812 13.949219-14.289062 26.453125-24.984375 37.160156l-2.3125 2.308594c-21.992187 21.96875-51.242187 34.089844-82.351562 34.089844-64.210938 0-116.449219-52.238281-116.449219-116.457031 0-31.09375 12.113281-60.34375 34.105469-82.34375zm325.894531 214.800781c-14.183594 0-41.457031 12.472656-58.585938 24.023438-34.382812 23.191406-89.582031 47.976562-141.414062 47.976562-88.425781 0-128-48.214844-128-96 0-1.839844.3125-3.960938.585938-6.03125 4.917968 4.039062 10.207031 7.617188 15.679687 10.917969 2.503906 35.648437 32.734375 75.113281 111.734375 75.113281 60.664062 0 116.734375-34.632812 132.472656-45.238281 24.113282-16.265625 50.617188-26.761719 67.527344-26.761719 45.632812 0 91.617188 19.214844 101.886719 61.617188-13.824219-18.023438-44.382813-45.617188-101.886719-45.617188zm0 0"/></svg>